<svg width="50" height="50" viewBox="0 0 50 50" fill="none" xmlns="http://www.w3.org/2000/svg">
<g clip-path="url(#clip0)">
<path d="M25 1.04199C11.1875 1.04199 0 12.042 0 25.6087C0 36.4649 7.1625 45.6712 17.0938 48.917C18.3438 49.1482 18.8021 48.3878 18.8021 47.7357C18.8021 47.1524 18.7812 45.6066 18.7708 43.5587C11.8167 45.0399 10.35 40.2628 10.35 40.2628C9.2125 37.4274 7.56875 36.6691 7.56875 36.6691C5.30417 35.1462 7.74375 35.1774 7.74375 35.1774C10.2542 35.3482 11.5729 37.7087 11.5729 37.7087C13.8021 41.4649 17.425 40.3795 18.8542 39.7524C19.0792 38.1628 19.7229 37.0816 20.4375 36.467C14.8854 35.8524 9.05 33.7399 9.05 24.3274C9.05 21.6462 10.0187 19.4545 11.6229 17.7357C11.3417 17.1149 10.4979 14.617 11.8417 11.2337C11.8417 11.2337 13.9354 10.5753 18.7167 13.7524C20.7167 13.2066 22.8417 12.9357 24.9667 12.9232C27.0917 12.9357 29.2167 13.2066 31.2167 13.7524C35.9667 10.5753 38.0604 11.2337 38.0604 11.2337C39.4042 14.617 38.5604 17.1149 38.3104 17.7357C39.9042 19.4545 40.8729 21.6462 40.8729 24.3274C40.8729 33.7649 35.0292 35.842 29.4667 36.4462C30.3417 37.1837 31.1542 38.6899 31.1542 40.992C31.1542 44.2795 31.1229 46.9212 31.1229 47.7191C31.1229 48.3628 31.5604 49.1316 32.8417 48.8857C42.8438 45.6607 50 36.4482 50 25.6087C50 12.042 38.8062 1.04199 25 1.04199Z" fill="white"/>
</g>
<defs>
<clipPath id="clip0">
<rect width="50" height="50" fill="white"/>
</clipPath>
</defs>
</svg>
