<svg width="50" height="50" viewBox="0 0 50 50" fill="none" xmlns="http://www.w3.org/2000/svg">
<path d="M29.7852 25C29.7852 27.6428 27.6428 29.7852 25 29.7852C22.3572 29.7852 20.2148 27.6428 20.2148 25C20.2148 22.3572 22.3572 20.2148 25 20.2148C27.6428 20.2148 29.7852 22.3572 29.7852 25Z" fill="white"/>
<path d="M36.191 16.5338C35.961 15.9105 35.594 15.3463 35.1171 14.8832C34.654 14.4064 34.0902 14.0394 33.4665 13.8094C32.9607 13.6129 32.2008 13.3791 30.8012 13.3154C29.2871 13.2463 28.8332 13.2314 25.0002 13.2314C21.1668 13.2314 20.7128 13.2459 19.1992 13.315C17.7996 13.3791 17.0393 13.6129 16.5338 13.8094C15.9101 14.0394 15.3459 14.4064 14.8832 14.8832C14.4064 15.3463 14.0394 15.9101 13.809 16.5338C13.6125 17.0397 13.3787 17.7999 13.315 19.1995C13.246 20.7132 13.2311 21.1672 13.2311 25.0005C13.2311 28.8336 13.246 29.2875 13.315 30.8016C13.3787 32.2012 13.6125 32.9611 13.809 33.4669C14.0394 34.0906 14.406 34.6544 14.8828 35.1175C15.3459 35.5943 15.9098 35.9613 16.5335 36.1913C17.0393 36.3882 17.7996 36.622 19.1992 36.6857C20.7128 36.7548 21.1664 36.7693 24.9998 36.7693C28.8336 36.7693 29.2875 36.7548 30.8008 36.6857C32.2004 36.622 32.9607 36.3882 33.4665 36.1913C34.7185 35.7084 35.708 34.7189 36.191 33.4669C36.3874 32.9611 36.6213 32.2012 36.6854 30.8016C36.7544 29.2875 36.7689 28.8336 36.7689 25.0005C36.7689 21.1672 36.7544 20.7132 36.6854 19.1995C36.6217 17.7999 36.3878 17.0397 36.191 16.5338ZM25.0002 32.3717C20.9288 32.3717 17.6283 29.0716 17.6283 25.0002C17.6283 20.9287 20.9288 17.6286 25.0002 17.6286C29.0712 17.6286 32.3717 20.9287 32.3717 25.0002C32.3717 29.0716 29.0712 32.3717 25.0002 32.3717ZM32.6631 19.0599C31.7118 19.0599 30.9404 18.2886 30.9404 17.3372C30.9404 16.3858 31.7118 15.6145 32.6631 15.6145C33.6145 15.6145 34.3859 16.3858 34.3859 17.3372C34.3855 18.2886 33.6145 19.0599 32.6631 19.0599Z" fill="white"/>
<path d="M25 0C11.195 0 0 11.195 0 25C0 38.805 11.195 50 25 50C38.805 50 50 38.805 50 25C50 11.195 38.805 0 25 0ZM39.2689 30.9185C39.1994 32.4467 38.9565 33.49 38.6017 34.4032C37.8559 36.3316 36.3316 37.8559 34.4032 38.6017C33.4904 38.9565 32.4467 39.1991 30.9189 39.2689C29.388 39.3387 28.899 39.3555 25.0004 39.3555C21.1014 39.3555 20.6127 39.3387 19.0815 39.2689C17.5537 39.1991 16.51 38.9565 15.5972 38.6017C14.6389 38.2412 13.7714 37.6762 13.0543 36.9457C12.3241 36.2289 11.7592 35.3611 11.3987 34.4032C11.0439 33.4904 10.8009 32.4467 10.7315 30.9189C10.6609 29.3877 10.6445 28.8986 10.6445 25C10.6445 21.1014 10.6609 20.6123 10.7311 19.0815C10.8006 17.5533 11.0432 16.51 11.3979 15.5968C11.7584 14.6389 12.3238 13.7711 13.0543 13.0543C13.7711 12.3238 14.6389 11.7588 15.5968 11.3983C16.51 11.0435 17.5533 10.8009 19.0815 10.7311C20.6123 10.6613 21.1014 10.6445 25 10.6445C28.8986 10.6445 29.3877 10.6613 30.9185 10.7315C32.4467 10.8009 33.49 11.0435 34.4032 11.3979C35.3611 11.7584 36.2289 12.3238 36.9461 13.0543C37.6762 13.7714 38.2416 14.6389 38.6017 15.5968C38.9568 16.51 39.1994 17.5533 39.2693 19.0815C39.3391 20.6123 39.3555 21.1014 39.3555 25C39.3555 28.8986 39.3391 29.3877 39.2689 30.9185Z" fill="white"/>
</svg>
